{"title":"My Bloody Valentine 3D SBS","uid":6886501,"size":1057732893,"categoryP":"video","categoryS":"3d","magnet":"?xt=urn:btih:3b5667edcb124f2f3d31876368b152b49273dddc&amp;dn=My+Bloody+Valentine+3D+SBS&amp;tr=udp%3A%2F%2Ftracker.openbittorrent.com%3A80&amp;tr=udp%3A%2F%2Fopen.demonii.com%3A1337&amp;tr=udp%3A%2F%2Ftracker.coppersurfer.tk%3A6969&amp;tr=udp%3A%2F%2Fexodus.desync.com%3A6969","seeders":3,"leechers":0,"uploader":"stu181","files":1,"time":1323852740,"description":"Storyline\n\nIn the mining town of Harmony, a drilling accident is caused by the son of the owner, Tom Hanniger. The mine collapses, burying six miners alive. The rescue team finds only Harry Warden alive, but in coma, and the other miners murdered by his pickax, and they conclude that Harry killed them to save oxygen for himself. On Valentine's Day, Harry awakes from his coma in the local hospital, and he kills twenty-two people, including a group of teenagers that are partying in the mine. Harry is killed by the deputy, but the only survivors are Tom Hanniger, his girlfriend Sarah, their friend Axel Palmer and his girlfriend Irene. Ten years later, Tom returns to Harmony after the death of his father. Tom has decided to sell the Hanniger Mine, and finds that Sarah has married Axel, who is now the local sheriff, and they have a son named Noah. On Valentine's Day, Harry Warden also returns...\n\nFormat                           : Matroska\nFormat version                   : Version 1\nFile size                        : 1 009 MiB\nDuration                         : 1h 41mn\nOverall bit rate                 : 1 396 Kbps\nEncoded date                     : UTC 2011-12-13 11:32:36\nWriting application              : AVSMatroskaFile\nWriting library                  : libebml v0.7.7 + libmatroska v0.8.1\n\nVideo\nID                               : 1\nFormat                           : AVC\nFormat/Info                      : Advanced Video Codec\nFormat profile                   : &lt;a class=&quot;__cf_email__&quot; href=&quot;/cdn-cgi/l/email-protection&quot; data-cfemail=&quot;f5b8949c9bb5b9c0dbc4&quot;&gt;[email&amp;#160;protected]&lt;/a&gt;&lt;script cf-hash='f9e31' type=&quot;text/javascript&quot;&gt;\n/* &lt;![CDATA[ */!function(){try{var t=&quot;currentScript&quot;in document?document.currentScript:function(){for(var t=document.getElementsByTagName(&quot;script&quot;),e=t.length;e--;)if(t[e].getAttribute(&quot;cf-hash&quot;))return t[e]}();if(t&amp;&amp;t.previousSibling){var e,r,n,i,c=t.previousSibling,a=c.getAttribute(&quot;data-cfemail&quot;);if(a){for(e=&quot;&quot;,r=parseInt(a.substr(0,2),16),n=2;a.length-n;n+=2)i=parseInt(a.substr(n,2),16)^r,e+=String.fromCharCode(i);e=document.createTextNode(e),c.parentNode.replaceChild(e,c)}}}catch(u){}}();/* ]]&gt; */&lt;/script&gt;\nFormat settings, CABAC           : Yes\nFormat settings, ReFrames        : 1 frame\nCodec ID                         : V_MPEG4/ISO/AVC\nDuration                         : 1h 41mn\nBit rate                         : 1 176 Kbps\nWidth                            : 1 920 pixels\nHeight                           : 1 080 pixels\nDisplay aspect ratio             : 16:9\nFrame rate                       : 23.976 fps\nColor space                      : YUV\nChroma subsampling               : 4:2:0\nBit depth                        : 8 bits\nScan type                        : Progressive\nBits/(Pixel*Frame)               : 0.024\nStream size                      : 850 MiB (84%)\n\nAudio\nID                               : 2\nFormat                           : MPEG Audio\nFormat version                   : Version 1\nFormat profile                   : Layer 3\nCodec ID                         : A_MPEG/L3\nCodec ID/Hint                    : MP3\nDuration                         : 1h 41mn\nBit rate mode                    : Constant\nBit rate                         : 192 Kbps\nChannel(s)                       : 2 channels\nSampling rate                    : 44.1 KHz\nCompression mode                 : Lossy\nStream size                      : 139 MiB (14%)\nWriting library                  : LAMELAME_MAJOR_VERSI","torrent":{"xt":"urn:btih:3b5667edcb124f2f3d31876368b152b49273dddc","amp;dn":"My+Bloody+Valentine+3D+SBS","amp;tr":["udp%3A%2F%2Ftracker.openbittorrent.com%3A80","udp%3A%2F%2Fopen.demonii.com%3A1337","udp%3A%2F%2Ftracker.coppersurfer.tk%3A6969","udp%3A%2F%2Fexodus.desync.com%3A6969"],"infoHash":"3b5667edcb124f2f3d31876368b152b49273dddc","infoHashBuffer":{"type":"Buffer","data":[59,86,103,237,203,18,79,47,61,49,135,99,104,177,82,180,146,115,221,220]},"announce":[],"urlList":[]}}